<?xml version="1.0" encoding="UTF-8" standalone="no"?>
<!DOCTYPE svg PUBLIC "-//W3C//DTD SVG 1.1//EN"
 "http://www.w3.org/Graphics/SVG/1.1/DTD/svg11.dtd">
<!-- Generated by graphviz version 2.40.1 (20161225.0304)
 -->
<!-- Title: %3 Pages: 1 -->
<svg width="297pt" height="136pt"
 viewBox="0.00 0.00 297.00 135.62" xmlns="http://www.w3.org/2000/svg" xmlns:xlink="http://www.w3.org/1999/xlink">
<g id="graph0" class="graph" transform="scale(1 1) rotate(0) translate(4 131.6163)">
<title>%3</title>
<polygon fill="#ffffff" stroke="transparent" points="-4,4 -4,-131.6163 293,-131.6163 293,4 -4,4"/>
<!-- 0 -->
<g id="node1" class="node">
<title>0</title>
<ellipse fill="none" stroke="#00ff00" cx="18" cy="-28.6163" rx="18" ry="18"/>
<text text-anchor="middle" x="18" y="-24.9163" font-family="Times,serif" font-size="14.00" fill="#000000">0</text>
</g>
<!-- 0&#45;&gt;0 -->
<g id="edge1" class="edge">
<title>0&#45;&gt;0</title>
<path fill="none" stroke="#00ff00" stroke-width="0" d="M10.7977,-55.3845C11.5953,-60.7688 13.9961,-64.6163 18,-64.6163 24.25,-64.6163 26.5938,-55.2413 25.0313,-45.2803"/>
<polygon fill="#00ff00" stroke="#00ff00" stroke-width="0" points="14.2989,-55.3382 10.9688,-45.2803 7.2999,-55.2196 14.2989,-55.3382"/>
</g>
<!-- 1 -->
<g id="node2" class="node">
<title>1</title>
<ellipse fill="none" stroke="#0000ff" cx="99" cy="-85.6163" rx="18" ry="18"/>
<text text-anchor="middle" x="99" y="-81.9163" font-family="Times,serif" font-size="14.00" fill="#000000">1</text>
</g>
<!-- 0&#45;&gt;1 -->
<g id="edge2" class="edge">
<title>0&#45;&gt;1</title>
<path fill="none" stroke="#000000" d="M32.8566,-39.071C44.8455,-47.5076 61.9273,-59.5281 75.7285,-69.24"/>
<polygon fill="#000000" stroke="#000000" points="74.0452,-72.3352 84.2375,-75.2279 78.0737,-66.6106 74.0452,-72.3352"/>
<text text-anchor="middle" x="58.5" y="-62.4163" font-family="Times,serif" font-size="14.00" fill="#000000">a</text>
</g>
<!-- 3 -->
<g id="node4" class="node">
<title>3</title>
<ellipse fill="none" stroke="#ff0000" cx="267" cy="-76.6163" rx="18" ry="18"/>
<ellipse fill="none" stroke="#ff0000" cx="267" cy="-76.6163" rx="22" ry="22"/>
<text text-anchor="middle" x="267" y="-72.9163" font-family="Times,serif" font-size="14.00" fill="#000000">3</text>
</g>
<!-- 0&#45;&gt;3 -->
<g id="edge3" class="edge">
<title>0&#45;&gt;3</title>
<path fill="none" stroke="#000000" d="M34.7172,-21.9094C67.5562,-9.8024 142.2275,12.4049 199,-10.6163 218.9391,-18.7015 236.2526,-35.7507 248.4195,-50.495"/>
<polygon fill="#000000" stroke="#000000" points="245.6938,-52.691 254.6333,-58.3775 251.1912,-48.3574 245.6938,-52.691"/>
<text text-anchor="middle" x="140" y="-5.4163" font-family="Times,serif" font-size="14.00" fill="#000000">b</text>
</g>
<!-- 2 -->
<g id="node3" class="node">
<title>2</title>
<ellipse fill="none" stroke="#0000ff" cx="181" cy="-37.6163" rx="18" ry="18"/>
<text text-anchor="middle" x="181" y="-33.9163" font-family="Times,serif" font-size="14.00" fill="#000000">2</text>
</g>
<!-- 1&#45;&gt;2 -->
<g id="edge4" class="edge">
<title>1&#45;&gt;2</title>
<path fill="none" stroke="#000000" d="M114.2677,-75.5251C120.6167,-71.4172 128.1018,-66.6875 135,-62.6163 141.6731,-58.6779 149.003,-54.5902 155.8122,-50.8893"/>
<polygon fill="#000000" stroke="#000000" points="157.5119,-53.9493 164.6641,-46.1329 154.1986,-47.7831 157.5119,-53.9493"/>
<text text-anchor="middle" x="140" y="-66.4163" font-family="Times,serif" font-size="14.00" fill="#000000">a</text>
</g>
<!-- 1&#45;&gt;3 -->
<g id="edge5" class="edge">
<title>1&#45;&gt;3</title>
<path fill="none" stroke="#000000" d="M114.2409,-95.5519C120.4606,-99.2096 127.8599,-103.0753 135,-105.6163 161.8797,-115.1822 170.5802,-113.1339 199,-110.6163 211.592,-109.5008 215.3665,-110.5624 227,-105.6163 232.1309,-103.4348 237.235,-100.4915 241.9951,-97.3139"/>
<polygon fill="#000000" stroke="#000000" points="244.0576,-100.1418 250.1234,-91.4552 239.9645,-94.4632 244.0576,-100.1418"/>
<text text-anchor="middle" x="181" y="-116.4163" font-family="Times,serif" font-size="14.00" fill="#000000">b</text>
</g>
<!-- 2&#45;&gt;0 -->
<g id="edge6" class="edge">
<title>2&#45;&gt;0</title>
<path fill="none" stroke="#000000" d="M162.8524,-36.6143C134.5295,-35.0504 79.5998,-32.0175 46.1215,-30.169"/>
<polygon fill="#000000" stroke="#000000" points="46.2444,-26.6705 36.0666,-29.6138 45.8584,-33.6599 46.2444,-26.6705"/>
<text text-anchor="middle" x="99" y="-37.4163" font-family="Times,serif" font-size="14.00" fill="#000000">a</text>
</g>
<!-- 2&#45;&gt;3 -->
<g id="edge7" class="edge">
<title>2&#45;&gt;3</title>
<path fill="none" stroke="#000000" d="M197.5817,-45.1359C208.8933,-50.2656 224.1873,-57.2012 237.5409,-63.2569"/>
<polygon fill="#000000" stroke="#000000" points="236.284,-66.53 246.8368,-67.4725 239.1751,-60.1549 236.284,-66.53"/>
<text text-anchor="middle" x="222" y="-61.4163" font-family="Times,serif" font-size="14.00" fill="#000000">b</text>
</g>
<!-- 3&#45;&gt;1 -->
<g id="edge8" class="edge">
<title>3&#45;&gt;1</title>
<path fill="none" stroke="#000000" d="M244.9182,-77.7992C214.7222,-79.4169 160.5208,-82.3205 127.355,-84.0973"/>
<polygon fill="#000000" stroke="#000000" points="126.7774,-80.6231 116.9789,-84.6531 127.1519,-87.6131 126.7774,-80.6231"/>
<text text-anchor="middle" x="181" y="-85.4163" font-family="Times,serif" font-size="14.00" fill="#000000">a</text>
</g>
</g>
</svg>
