<?xml version="1.0" encoding="UTF-8" standalone="no"?>
<!DOCTYPE svg PUBLIC "-//W3C//DTD SVG 1.1//EN"
 "http://www.w3.org/Graphics/SVG/1.1/DTD/svg11.dtd">
<!-- Generated by graphviz version 2.40.1 (20161225.0304)
 -->
<!-- Title: %3 Pages: 1 -->
<svg width="298pt" height="161pt"
 viewBox="0.00 0.00 298.00 161.00" xmlns="http://www.w3.org/2000/svg" xmlns:xlink="http://www.w3.org/1999/xlink">
<g id="graph0" class="graph" transform="scale(1 1) rotate(0) translate(4 157)">
<title>%3</title>
<polygon fill="#ffffff" stroke="transparent" points="-4,4 -4,-157 294,-157 294,4 -4,4"/>
<!-- 0 -->
<g id="node1" class="node">
<title>0</title>
<ellipse fill="none" stroke="#00ff00" cx="18" cy="-65" rx="18" ry="18"/>
<text text-anchor="middle" x="18" y="-61.3" font-family="Times,serif" font-size="14.00" fill="#000000">0</text>
</g>
<!-- 0&#45;&gt;0 -->
<g id="edge1" class="edge">
<title>0&#45;&gt;0</title>
<path fill="none" stroke="#00ff00" stroke-width="0" d="M10.7977,-91.7682C11.5953,-97.1525 13.9961,-101 18,-101 24.25,-101 26.5938,-91.625 25.0313,-81.6641"/>
<polygon fill="#00ff00" stroke="#00ff00" stroke-width="0" points="14.2989,-91.7219 10.9688,-81.6641 7.2999,-91.6033 14.2989,-91.7219"/>
</g>
<!-- 1 -->
<g id="node2" class="node">
<title>1</title>
<ellipse fill="none" stroke="#0000ff" cx="100" cy="-92" rx="18" ry="18"/>
<text text-anchor="middle" x="100" y="-88.3" font-family="Times,serif" font-size="14.00" fill="#000000">1</text>
</g>
<!-- 0&#45;&gt;1 -->
<g id="edge2" class="edge">
<title>0&#45;&gt;1</title>
<path fill="none" stroke="#000000" d="M28.549,-79.7138C34.9434,-87.3252 43.8234,-95.8684 54,-100 60.1118,-102.4813 66.9859,-102.5768 73.5203,-101.5525"/>
<polygon fill="#000000" stroke="#000000" points="74.438,-104.9319 83.3505,-99.2032 72.8108,-98.1236 74.438,-104.9319"/>
<text text-anchor="middle" x="59" y="-105.8" font-family="Times,serif" font-size="14.00" fill="#000000">a</text>
</g>
<!-- 0&#45;&gt;1 -->
<g id="edge3" class="edge">
<title>0&#45;&gt;1</title>
<path fill="none" stroke="#000000" d="M35.3901,-70.726C46.2617,-74.3057 60.493,-78.9916 72.8313,-83.0542"/>
<polygon fill="#000000" stroke="#000000" points="72.042,-86.4791 82.635,-86.2822 74.2313,-79.8303 72.042,-86.4791"/>
<text text-anchor="middle" x="59" y="-83.8" font-family="Times,serif" font-size="14.00" fill="#000000">b</text>
</g>
<!-- 2 -->
<g id="node3" class="node">
<title>2</title>
<ellipse fill="none" stroke="#0000ff" cx="100" cy="-18" rx="18" ry="18"/>
<text text-anchor="middle" x="100" y="-14.3" font-family="Times,serif" font-size="14.00" fill="#000000">2</text>
</g>
<!-- 0&#45;&gt;2 -->
<g id="edge4" class="edge">
<title>0&#45;&gt;2</title>
<path fill="none" stroke="#000000" d="M33.8104,-55.9379C45.6082,-49.1758 61.9492,-39.8096 75.4424,-32.0757"/>
<polygon fill="#000000" stroke="#000000" points="77.3027,-35.0437 84.2381,-27.0343 73.8217,-28.9705 77.3027,-35.0437"/>
<text text-anchor="middle" x="59" y="-47.8" font-family="Times,serif" font-size="14.00" fill="#000000">a</text>
</g>
<!-- 0&#45;&gt;2 -->
<g id="edge5" class="edge">
<title>0&#45;&gt;2</title>
<path fill="none" stroke="#000000" d="M25.919,-48.6837C32.003,-38.1436 41.4866,-25.266 54,-19 59.4908,-16.2505 65.832,-15.0621 72.0178,-14.7452"/>
<polygon fill="#000000" stroke="#000000" points="72.0467,-18.2461 82.1035,-14.9129 72.1631,-11.2471 72.0467,-18.2461"/>
<text text-anchor="middle" x="59" y="-22.8" font-family="Times,serif" font-size="14.00" fill="#000000">b</text>
</g>
<!-- 4 -->
<g id="node5" class="node">
<title>4</title>
<ellipse fill="none" stroke="#ff0000" cx="268" cy="-65" rx="18" ry="18"/>
<ellipse fill="none" stroke="#ff0000" cx="268" cy="-65" rx="22" ry="22"/>
<text text-anchor="middle" x="268" y="-61.3" font-family="Times,serif" font-size="14.00" fill="#000000">4</text>
</g>
<!-- 1&#45;&gt;4 -->
<g id="edge6" class="edge">
<title>1&#45;&gt;4</title>
<path fill="none" stroke="#000000" d="M117.9789,-89.1105C146.1321,-84.5859 201.0142,-75.7656 236.0192,-70.1398"/>
<polygon fill="#000000" stroke="#000000" points="236.8751,-73.5472 246.193,-68.5047 235.7643,-66.6359 236.8751,-73.5472"/>
<text text-anchor="middle" x="182" y="-84.8" font-family="Times,serif" font-size="14.00" fill="#000000">b</text>
</g>
<!-- 3 -->
<g id="node4" class="node">
<title>3</title>
<ellipse fill="none" stroke="#0000ff" cx="182" cy="-38" rx="18" ry="18"/>
<text text-anchor="middle" x="182" y="-34.3" font-family="Times,serif" font-size="14.00" fill="#000000">3</text>
</g>
<!-- 2&#45;&gt;3 -->
<g id="edge7" class="edge">
<title>2&#45;&gt;3</title>
<path fill="none" stroke="#000000" d="M117.0581,-24.2671C122.9967,-26.2932 129.7396,-28.4216 136,-30 141.6985,-31.4367 147.8587,-32.7013 153.7621,-33.776"/>
<polygon fill="#000000" stroke="#000000" points="153.5117,-37.2833 163.9556,-35.5016 154.6801,-30.3815 153.5117,-37.2833"/>
<text text-anchor="middle" x="141" y="-35.8" font-family="Times,serif" font-size="14.00" fill="#000000">a</text>
</g>
<!-- 2&#45;&gt;3 -->
<g id="edge8" class="edge">
<title>2&#45;&gt;3</title>
<path fill="none" stroke="#000000" d="M116.9311,-11.6925C125.7651,-9.3272 136.6505,-7.8835 146,-11 151.2391,-12.7464 156.3297,-15.5869 160.9543,-18.7842"/>
<polygon fill="#000000" stroke="#000000" points="159.1447,-21.8102 169.1899,-25.1784 163.4376,-16.2811 159.1447,-21.8102"/>
<text text-anchor="middle" x="141" y="-14.8" font-family="Times,serif" font-size="14.00" fill="#000000">b</text>
</g>
<!-- 3&#45;&gt;4 -->
<g id="edge9" class="edge">
<title>3&#45;&gt;4</title>
<path fill="none" stroke="#000000" d="M199.4034,-43.4639C210.2472,-46.8683 224.5057,-51.3448 237.2126,-55.3342"/>
<polygon fill="#000000" stroke="#000000" points="236.3865,-58.7432 246.9758,-58.3994 238.4833,-52.0646 236.3865,-58.7432"/>
<text text-anchor="middle" x="223" y="-55.8" font-family="Times,serif" font-size="14.00" fill="#000000">b</text>
</g>
<!-- 4&#45;&gt;4 -->
<g id="edge10" class="edge">
<title>4&#45;&gt;4</title>
<path fill="none" stroke="#000000" d="M263.9395,-86.8066C263.5527,-96.5625 264.9063,-105 268,-105 269.9336,-105 271.1874,-101.7041 271.7614,-96.8504"/>
<polygon fill="#000000" stroke="#000000" points="275.2612,-96.9064 272.0605,-86.8066 268.2643,-96.698 275.2612,-96.9064"/>
<text text-anchor="middle" x="268" y="-108.8" font-family="Times,serif" font-size="14.00" fill="#000000">a</text>
</g>
<!-- 4&#45;&gt;4 -->
<g id="edge11" class="edge">
<title>4&#45;&gt;4</title>
<path fill="none" stroke="#000000" d="M261.0597,-86.1143C257.9952,-104.0956 260.3086,-123 268,-123 274.2493,-123 276.9482,-110.5201 276.0969,-96.1954"/>
<polygon fill="#000000" stroke="#000000" points="279.5574,-95.6501 274.9403,-86.1143 272.603,-96.4481 279.5574,-95.6501"/>
<text text-anchor="middle" x="268" y="-126.8" font-family="Times,serif" font-size="14.00" fill="#000000">b</text>
</g>
</g>
</svg>
