<?xml version="1.0" encoding="UTF-8" standalone="no"?>
<!DOCTYPE svg PUBLIC "-//W3C//DTD SVG 1.1//EN"
 "http://www.w3.org/Graphics/SVG/1.1/DTD/svg11.dtd">
<!-- Generated by graphviz version 2.38.0 (20140413.2041)
 -->
<!-- Title: %3 Pages: 1 -->
<svg width="292pt" height="167pt"
 viewBox="0.00 0.00 292.00 167.00" xmlns="http://www.w3.org/2000/svg" xmlns:xlink="http://www.w3.org/1999/xlink">
<g id="graph0" class="graph" transform="scale(1 1) rotate(0) translate(4 163)">
<title>%3</title>
<polygon fill="white" stroke="none" points="-4,4 -4,-163 288,-163 288,4 -4,4"/>
<!-- 0 -->
<g id="node1" class="node"><title>0</title>
<ellipse fill="none" stroke="#00ff00" cx="18" cy="-65" rx="18" ry="18"/>
<text text-anchor="middle" x="18" y="-61.3" font-family="Times New Roman,serif" font-size="14.00">0</text>
</g>
<!-- 0&#45;&gt;0 -->
<g id="edge1" class="edge"><title>0&#45;&gt;0</title>
<path fill="none" stroke="#00ff00" stroke-width="0" d="M10.7977,-91.7682C11.5953,-97.1525 13.9961,-101 18,-101 24.25,-101 26.5938,-91.625 25.0313,-81.6641"/>
<polygon fill="#00ff00" stroke="#00ff00" stroke-width="0" points="14.2989,-91.7219 10.9688,-81.6641 7.29985,-91.6033 14.2989,-91.7219"/>
</g>
<!-- 1 -->
<g id="node2" class="node"><title>1</title>
<ellipse fill="none" stroke="#0000ff" cx="98" cy="-92" rx="18" ry="18"/>
<text text-anchor="middle" x="98" y="-88.3" font-family="Times New Roman,serif" font-size="14.00">1</text>
</g>
<!-- 0&#45;&gt;1 -->
<g id="edge2" class="edge"><title>0&#45;&gt;1</title>
<path fill="none" stroke="#000000" d="M28.8784,-79.343C35.0878,-87.0407 43.8378,-95.7907 54,-100 59.4369,-102.252 65.5228,-102.407 71.3665,-101.529"/>
<polygon fill="#000000" stroke="#000000" points="72.5521,-104.842 81.4309,-99.0614 70.8851,-98.0435 72.5521,-104.842"/>
<text text-anchor="middle" x="58" y="-104.8" font-family="Times New Roman,serif" font-size="14.00">a</text>
</g>
<!-- 0&#45;&gt;1 -->
<g id="edge3" class="edge"><title>0&#45;&gt;1</title>
<path fill="none" stroke="#000000" d="M35.1617,-70.5944C45.62,-74.2146 59.4616,-79.0059 71.3973,-83.1375"/>
<polygon fill="#000000" stroke="#000000" points="70.2643,-86.449 80.8591,-86.4127 72.5541,-79.8341 70.2643,-86.449"/>
<text text-anchor="middle" x="58" y="-82.8" font-family="Times New Roman,serif" font-size="14.00">b</text>
</g>
<!-- 2 -->
<g id="node3" class="node"><title>2</title>
<ellipse fill="none" stroke="#0000ff" cx="98" cy="-18" rx="18" ry="18"/>
<text text-anchor="middle" x="98" y="-14.3" font-family="Times New Roman,serif" font-size="14.00">2</text>
</g>
<!-- 0&#45;&gt;2 -->
<g id="edge4" class="edge"><title>0&#45;&gt;2</title>
<path fill="none" stroke="#000000" d="M34.0392,-55.9379C45.2248,-49.1979 60.7038,-39.8708 73.5145,-32.1515"/>
<polygon fill="#000000" stroke="#000000" points="75.5127,-35.0338 82.2715,-26.8749 71.8999,-29.0382 75.5127,-35.0338"/>
<text text-anchor="middle" x="58" y="-45.8" font-family="Times New Roman,serif" font-size="14.00">a</text>
</g>
<!-- 0&#45;&gt;2 -->
<g id="edge5" class="edge"><title>0&#45;&gt;2</title>
<path fill="none" stroke="#000000" d="M27.1171,-49.1335C33.1078,-39.2117 42.2514,-27.18 54,-21 58.7624,-18.4949 64.2419,-17.1604 69.66,-16.5365"/>
<polygon fill="#000000" stroke="#000000" points="69.9617,-20.0268 79.7986,-16.0917 69.6547,-13.0335 69.9617,-20.0268"/>
<text text-anchor="middle" x="58" y="-24.8" font-family="Times New Roman,serif" font-size="14.00">b</text>
</g>
<!-- 4 -->
<g id="node5" class="node"><title>4</title>
<ellipse fill="none" stroke="#ff0000" cx="262" cy="-71" rx="18" ry="18"/>
<ellipse fill="none" stroke="#ff0000" cx="262" cy="-71" rx="22" ry="22"/>
<text text-anchor="middle" x="262" y="-67.3" font-family="Times New Roman,serif" font-size="14.00">4</text>
</g>
<!-- 1&#45;&gt;4 -->
<g id="edge6" class="edge"><title>1&#45;&gt;4</title>
<path fill="none" stroke="#000000" d="M116.031,-89.7923C143.006,-86.2955 195.97,-79.4299 229.865,-75.036"/>
<polygon fill="#000000" stroke="#000000" points="230.676,-78.4603 240.143,-73.7037 229.776,-71.5184 230.676,-78.4603"/>
<text text-anchor="middle" x="178" y="-86.8" font-family="Times New Roman,serif" font-size="14.00">b</text>
</g>
<!-- 3 -->
<g id="node4" class="node"><title>3</title>
<ellipse fill="none" stroke="#0000ff" cx="178" cy="-38" rx="18" ry="18"/>
<text text-anchor="middle" x="178" y="-34.3" font-family="Times New Roman,serif" font-size="14.00">3</text>
</g>
<!-- 2&#45;&gt;3 -->
<g id="edge7" class="edge"><title>2&#45;&gt;3</title>
<path fill="none" stroke="#000000" d="M115.23,-24.1176C121.088,-26.1781 127.788,-28.3665 134,-30 139.191,-31.365 144.794,-32.5861 150.185,-33.6387"/>
<polygon fill="#000000" stroke="#000000" points="149.663,-37.1011 160.129,-35.4488 150.917,-30.2143 149.663,-37.1011"/>
<text text-anchor="middle" x="138" y="-34.8" font-family="Times New Roman,serif" font-size="14.00">a</text>
</g>
<!-- 2&#45;&gt;3 -->
<g id="edge8" class="edge"><title>2&#45;&gt;3</title>
<path fill="none" stroke="#000000" d="M115.239,-11.6928C123.424,-9.42652 133.409,-8.07146 142,-11 147.223,-12.7805 152.273,-15.691 156.836,-18.9562"/>
<polygon fill="#000000" stroke="#000000" points="154.941,-21.924 164.926,-25.4684 159.331,-16.4713 154.941,-21.924"/>
<text text-anchor="middle" x="138" y="-14.8" font-family="Times New Roman,serif" font-size="14.00">b</text>
</g>
<!-- 3&#45;&gt;4 -->
<g id="edge9" class="edge"><title>3&#45;&gt;4</title>
<path fill="none" stroke="#000000" d="M195.201,-44.5197C205.66,-48.729 219.569,-54.3264 231.903,-59.2904"/>
<polygon fill="#000000" stroke="#000000" points="230.779,-62.6105 241.362,-63.097 233.392,-56.1166 230.779,-62.6105"/>
<text text-anchor="middle" x="218" y="-57.8" font-family="Times New Roman,serif" font-size="14.00">b</text>
</g>
<!-- 4&#45;&gt;4 -->
<g id="edge10" class="edge"><title>4&#45;&gt;4</title>
<path fill="none" stroke="#000000" d="M257.939,-92.8066C257.553,-102.563 258.906,-111 262,-111 263.934,-111 265.187,-107.704 265.761,-102.85"/>
<polygon fill="#000000" stroke="#000000" points="269.261,-102.906 266.061,-92.8066 262.264,-102.698 269.261,-102.906"/>
<text text-anchor="middle" x="262" y="-114.8" font-family="Times New Roman,serif" font-size="14.00">a</text>
</g>
<!-- 4&#45;&gt;4 -->
<g id="edge11" class="edge"><title>4&#45;&gt;4</title>
<path fill="none" stroke="#000000" d="M255.06,-92.1143C251.995,-110.096 254.309,-129 262,-129 268.249,-129 270.948,-116.52 270.097,-102.195"/>
<polygon fill="#000000" stroke="#000000" points="273.557,-101.65 268.94,-92.1143 266.603,-102.448 273.557,-101.65"/>
<text text-anchor="middle" x="262" y="-132.8" font-family="Times New Roman,serif" font-size="14.00">b</text>
</g>
</g>
</svg>
